HIERARCHY
ROOT root
{
	OFFSET 0.000000 0.000000 0.000000
	CHANNELS 6 Xposition Yposition Zposition Zrotation Yrotation Xrotation
	JOINT lhip
	{
		OFFSET 0.058581 -0.082280 -0.017664
		CHANNELS 3 Zrotation Yrotation Xrotation
		JOINT lknee
		{
			OFFSET 0.043451 -0.386469 0.008037
			CHANNELS 3 Zrotation Yrotation Xrotation
			JOINT lankle
			{
				OFFSET -0.014790 -0.426874 -0.037428
				CHANNELS 3 Zrotation Yrotation Xrotation
				JOINT ltoe
				{
					OFFSET 0.041054 -0.060286 0.122042
					CHANNELS 3 Zrotation Yrotation Xrotation
					End Site
					{
						OFFSET 0.000000 0.000000 0.000000
					}
				}
			}
		}
	}
	JOINT rhip
	{
		OFFSET -0.060310 -0.090513 -0.013543
		CHANNELS 3 Zrotation Yrotation Xrotation
		JOINT rknee
		{
			OFFSET -0.043257 -0.383688 -0.004843
			CHANNELS 3 Zrotation Yrotation Xrotation
			JOINT rankle
			{
				OFFSET 0.019056 -0.420046 -0.034562
				CHANNELS 3 Zrotation Yrotation Xrotation
				JOINT rtoe
				{
					OFFSET -0.034840 -0.062106 0.130323
					CHANNELS 3 Zrotation Yrotation Xrotation
					End Site
					{
						OFFSET 0.000000 0.000000 0.000000
					}
				}
			}
		}
	}
	JOINT lowerback
	{
		OFFSET 0.004439 0.124404 -0.038385
		CHANNELS 3 Zrotation Yrotation Xrotation
		JOINT upperback
		{
			OFFSET 0.004488 0.137956 0.026820
			CHANNELS 3 Zrotation Yrotation Xrotation
			JOINT chest
			{
				OFFSET -0.002265 0.056032 0.002855
				CHANNELS 3 Zrotation Yrotation Xrotation
				JOINT lowerneck
				{
					OFFSET -0.013390 0.211636 -0.033468
					CHANNELS 3 Zrotation Yrotation Xrotation
					JOINT upperneck
					{
						OFFSET 0.010113 0.088937 0.050410
						CHANNELS 3 Zrotation Yrotation Xrotation
						End Site
						{
							OFFSET 0.000000 0.000000 0.000000
						}
					}
				}
				JOINT lclavicle
				{
					OFFSET 0.071702 0.114000 -0.018898
					CHANNELS 3 Zrotation Yrotation Xrotation
					JOINT lshoulder
					{
						OFFSET 0.122921 0.045205 -0.019046
						CHANNELS 3 Zrotation Yrotation Xrotation
						JOINT lelbow
						{
							OFFSET 0.255332 -0.015649 -0.022946
							CHANNELS 3 Zrotation Yrotation Xrotation
							JOINT lwrist
							{
								OFFSET 0.265709 0.012698 -0.007375
								CHANNELS 3 Zrotation Yrotation Xrotation
								End Site
								{
									OFFSET 0.000000 0.000000 0.000000
								}
							}
						}
					}
				}
				JOINT rclavicle
				{
					OFFSET -0.082954 0.112472 -0.023707
					CHANNELS 3 Zrotation Yrotation Xrotation
					JOINT rshoulder
					{
						OFFSET -0.113228 0.046853 -0.008472
						CHANNELS 3 Zrotation Yrotation Xrotation
						JOINT relbow
						{
							OFFSET -0.260127 -0.014369 -0.031269
							CHANNELS 3 Zrotation Yrotation Xrotation
							JOINT rwrist
							{
								OFFSET -0.269108 0.006794 -0.006027
								CHANNELS 3 Zrotation Yrotation Xrotation
								End Site
								{
									OFFSET 0.000000 0.000000 0.000000
								}
							}
						}
					}
				}
			}
		}
	}
}
MOTION
Frames: 7
Frame Time: 0.033333
-0.035175 -1.665040 0.925672 -149.189505 -2.475906 96.632996 0.521146 -10.398596 -24.885705 -8.916859 0.436369 39.613294 13.176340 9.354373 -31.356646 0.000000 -0.000000 0.000000 -3.646861 -5.911254 -15.963221 -4.564253 -12.276337 60.650093 2.284555 -4.195223 -11.215761 0.000000 -0.000000 0.000000 -4.954623 8.117302 18.505338 -1.803341 2.512664 -3.169848 -0.214331 5.150712 3.601553 3.586982 -26.993925 -9.483010 13.106467 -32.196326 -0.387352 -22.862773 -5.780238 -2.336786 -58.706907 -14.523966 21.127048 156.819765 -57.420149 -137.096018 33.844216 -3.770360 -16.833846 17.242475 22.868266 -1.858384 67.158818 19.856118 27.052126 -170.881573 84.575407 -149.080980 -9.029127 16.995058 -1.660735 
-0.032404 -1.660644 0.921638 -148.810464 -2.971112 96.771673 0.406095 -9.886676 -25.462345 -9.305843 0.313166 40.677612 13.682120 8.973653 -32.026032 0.000000 -0.000000 0.000000 -3.740086 -6.163069 -16.677656 -4.505081 -11.879214 62.150608 1.754580 -4.464620 -11.323455 0.000000 -0.000000 0.000000 -5.359660 8.186384 18.990358 -1.963485 2.468235 -3.229484 -0.154239 4.888314 3.248371 3.132951 -28.540195 -8.750119 13.991809 -31.717330 -3.302398 -23.666808 -4.381354 -0.595300 -58.253239 -10.648046 20.440458 157.598179 -60.490017 -139.063188 35.682777 -2.535601 -15.223748 17.704991 21.752137 -0.792274 68.172372 15.858585 26.691252 173.078553 86.919183 -167.402340 -10.480626 17.034343 -1.721034 
-0.029015 -1.655155 0.916929 -148.585457 -3.278741 97.066923 0.607400 -8.999213 -26.351354 -9.547855 0.628959 42.170753 13.974248 8.658326 -32.749878 0.000000 -0.000000 0.000000 -3.588831 -6.162977 -17.613776 -4.415294 -11.632831 63.612114 1.991517 -5.395678 -11.586016 0.000000 -0.000000 0.000000 -5.612379 8.103838 18.990709 -2.209887 2.593069 -3.291419 -0.185605 4.777936 3.336974 2.628054 -29.585861 -8.953758 15.206212 -31.140943 -6.522930 -24.452072 -3.501454 0.876135 -57.202948 -7.258945 19.680695 157.978494 -63.999520 -140.987478 37.290745 -1.860049 -14.074390 18.175676 20.795788 0.090506 67.935735 12.670700 25.664677 91.683236 87.975570 109.869336 -10.587589 16.524928 -1.369658 
-0.024883 -1.648483 0.912348 -148.141220 -3.792625 96.874398 0.599511 -8.365411 -26.690342 -10.811302 -0.107764 42.995933 13.743889 9.439872 -33.828052 0.000000 -0.000000 0.000000 -3.474877 -6.545249 -17.842154 -4.245233 -11.355953 64.841129 2.110399 -6.533012 -12.087468 0.000000 -0.000000 0.000000 -6.053749 8.097007 19.669022 -2.458760 2.453780 -3.417460 -0.251250 4.526824 3.127544 2.306612 -30.675564 -9.575500 16.157302 -30.872636 -9.488626 -25.009058 -2.729298 2.083743 -56.038408 -4.640654 19.342415 158.294096 -67.785694 -142.749210 38.429102 0.158563 -14.926711 18.454539 20.373246 0.621398 67.922228 9.772455 25.489959 43.629282 85.156341 59.080745 -11.478237 16.427495 -3.400450 
-0.019513 -1.639525 0.906683 -147.967815 -4.330441 96.996220 1.016186 -7.760794 -27.117153 -11.574786 -0.138044 44.175719 13.553510 9.252823 -34.673560 0.000000 -0.000000 0.000000 -3.228580 -6.830201 -18.238518 -4.004549 -11.145004 66.022306 2.160910 -7.577457 -13.103759 0.000000 -0.000000 0.000000 -6.964218 8.396888 19.407869 -2.526280 2.261906 -3.042520 -0.344858 4.255556 2.931897 2.074286 -30.795758 -10.834111 17.081871 -31.095159 -12.514901 -25.154290 -2.506381 3.244190 -55.037940 -2.690678 19.365924 158.500672 -71.885209 -144.839908 40.713287 0.575248 -17.703201 19.267162 19.761185 1.284945 67.227700 7.735990 25.155493 33.571430 82.080427 48.509575 -11.847591 15.524067 -3.789789 
-0.012355 -1.629049 0.902551 -148.242293 -5.301497 96.615412 0.922179 -6.740836 -26.639475 -12.302307 -0.241988 44.648883 13.635264 9.238162 -35.326002 0.000000 -0.000000 0.000000 -3.492442 -7.208788 -18.038969 -3.398181 -10.867618 66.916294 2.315754 -8.389931 -13.299678 0.000000 -0.000000 0.000000 -8.592839 9.173441 20.223241 -2.903283 1.967833 -2.885551 -0.281194 4.025800 2.212751 2.228016 -31.376402 -12.525979 18.161508 -31.281222 -15.303994 -25.154840 -2.468712 4.194613 -53.734150 -0.986793 19.823719 158.061891 -74.742733 -148.462684 46.281424 1.949172 -19.727180 20.137800 19.637164 1.423002 67.300704 5.453246 25.409530 25.584398 79.382587 38.125072 -11.237430 15.477664 -1.015775 
-0.004634 -1.618096 0.897671 -148.044269 -5.572616 96.886854 1.673035 -6.078642 -27.121513 -12.776097 -0.520528 45.663141 13.262214 9.027946 -36.027959 0.000000 -0.000000 0.000000 -3.357245 -7.835647 -18.553632 -2.854590 -11.661261 68.026429 2.028801 -8.961475 -12.579837 0.000000 -0.000000 0.000000 -9.406643 9.120101 20.097874 -3.295523 1.697909 -2.567523 -0.593472 3.729569 1.290215 2.278257 -31.542201 -14.582171 18.943246 -31.829138 -17.834475 -25.884347 -2.533679 5.523418 -51.189550 1.054014 18.842022 158.482247 -76.571661 -146.647313 39.179856 2.358864 -20.515355 21.180949 19.833904 2.728966 67.389679 3.965571 24.710734 21.349596 77.688471 34.721735 -9.014607 14.578587 -1.272329 
